<svg width="2109" height="749" viewBox="0 0 2109 749" fill="none" xmlns="http://www.w3.org/2000/svg">
<g clip-path="url(#clip0_1878_16166)">
<path d="M338.667 1.00005C266.8 9.80005 205.467 34.2001 149.333 76.2001C130.267 90.4667 94.6666 125.4 80.6666 143.667C57.4666 173.667 35.6 212.467 24 244.067C-4.53338 321.933 -6.80005 409.267 18 486.733C59.4666 616.467 168.133 713.933 302 741.8C330.667 747.667 351.333 749.4 388.667 748.6C434.533 747.667 460.267 743.4 501.333 729.667C543.867 715.533 583.733 693.933 619.333 665.533C634 653.8 664.267 623.533 675.867 609C719.867 553.533 746.533 491.133 756.133 421C759.2 398.333 759.2 352.067 756.133 328.333C747.067 259.133 720.667 196.2 677.733 141.933C664.933 125.8 635.2 95.9334 619.333 83.1334C582.667 53.8001 534.133 28.2001 490.133 15.0001C476.267 10.8667 453.2 5.66672 436 2.86672C420.667 0.33338 354.267 -0.86662 338.667 1.00005ZM432.667 74.7334C503.6 87.1334 567.067 123.267 613.733 177.667C676.933 251.533 701.2 351.533 678.533 444.867C649.067 565.8 550 655.533 424.667 675.267C403.067 678.6 355.2 678.6 334.667 675.133C263.6 663.4 205.733 633.667 157.733 583.933C108.533 532.867 80.2666 470.867 73.8666 399.8C72.4 383.267 72.5333 379.8 75.3333 355.4C77.0666 340.867 78.6666 329.267 78.9333 329.4C79.0666 329.667 81.7333 338.2 84.5333 348.467C112.933 448.733 154.667 510.067 224 553.667C266.933 580.733 314.133 593.4 363.6 591.133C433.333 588.2 490.267 566.333 531.067 527.133C569.733 489.8 590.533 445.933 595.467 390.6C599.067 351.8 591.867 313.933 573.867 277.667C549.2 227.533 505.333 191.667 456 181.533C435.2 177.133 355.333 177.8 244 183C222 184.067 203.2 185 202.4 185C199.733 185 200.267 187.267 205.067 196.867C210.267 207.533 223.6 222.067 233.867 228.2C252 239.133 275.067 243.8 298.267 241.267C305.733 240.467 312 239.933 312.267 240.067C312.4 240.2 310.133 245.533 307.333 251.667C296.933 275 293.733 288.733 293.733 311C294 359.133 319.2 397 357.467 406.867C374.667 411.267 397.733 409 411.733 401.4C430 391.4 443.733 366.2 441.2 347.133C437.6 320.467 418.4 298.6 390.8 290.067C382.667 287.667 379.6 287.4 365.067 288.067L348.667 288.867L356.267 280.2C380.4 253 405.2 242.867 435.333 247.8C466.133 252.733 495.733 276.2 511.6 308.333C520 325 524.133 340.467 525.867 361C531.733 427.533 489.733 490.867 426.533 510.733C335.067 539.533 233.867 493.8 186.8 402.333C172.933 375.4 159.733 332.733 154.533 297.667C151.6 277.933 151.6 243 154.4 226.867C160.933 190.6 174.933 164.467 199.733 142.067C222.667 121.267 240.8 108.867 266.667 96.3334C293.6 83.1334 320 75.2667 348 71.8001C367.333 69.4001 410.8 71.0001 432.667 74.7334Z" fill="#050504"/>
<path d="M1430 244.333V365H1452H1474V244.333V123.667H1452H1430V244.333Z" fill="#050504"/>
<path d="M987.333 250.334V365.267L1042.4 364.6C1079.2 364.2 1099.33 363.534 1103.33 362.467C1119.73 358.067 1139.2 343.934 1146.93 330.734C1163.47 302.6 1154.93 264.734 1128.4 248.2C1125.2 246.2 1122.4 244.467 1122.13 244.2C1122 244.067 1125.6 240.2 1130.27 235.8C1140.53 226.2 1146.53 215.267 1148.67 201.934C1153.07 174.334 1137.6 150.467 1107.87 139.4C1100.27 136.6 1098 136.467 1043.73 135.934L987.333 135.534V250.334ZM1090.4 176.867C1099.6 181.267 1103.73 188.2 1104.4 199.667C1105.2 213.4 1099.6 222.334 1087.6 226.6C1084.27 227.667 1074.4 228.334 1057.33 228.334H1032L1031.6 202.334C1031.47 188.067 1031.6 175.534 1032 174.6C1032.53 173 1037.33 172.867 1058.4 173.267C1082 173.667 1084.53 173.934 1090.4 176.867ZM1093.47 268.6C1110.13 277.534 1114.67 298.2 1103.07 312.334C1095.47 321.4 1091.87 322.334 1059.73 322.334H1031.33V294.6C1031.33 279.267 1031.73 266.334 1032.4 265.8C1032.93 265.267 1045.6 265 1060.67 265.267C1085.73 265.667 1088.4 265.934 1093.47 268.6Z" fill="#050504"/>
<path d="M1263.2 185C1227.07 190.733 1197.2 218.6 1189.47 253.933C1186.8 266.067 1186.8 285.933 1189.33 298.6C1191.73 310.467 1199.87 327.267 1207.6 336.6C1225.47 357.933 1249.73 369 1278.53 369C1300.27 369 1317.73 363.267 1332.53 351.667C1336.13 348.733 1339.47 346.867 1339.73 347.4C1340.13 347.933 1341.07 351.8 1342 355.933L1343.73 363.667H1360.93H1378V276.333V188.867L1361.73 189.267L1345.47 189.667L1342.8 198.6L1340 207.533L1336.67 204.867C1320.4 191.667 1303.6 185.133 1283.33 184.333C1276.4 184.067 1267.33 184.333 1263.2 185ZM1306.4 229.4C1326.93 239.533 1338.27 262.067 1334.27 285.133C1331.33 302.333 1321.47 315.8 1306.27 323.267C1299.33 326.733 1297.47 327 1283.33 327C1269.2 327 1267.33 326.733 1260.4 323.267C1245.2 315.8 1235.6 302.733 1232.53 285.8C1229.73 269.4 1234 253.8 1244.27 242.2C1256.4 228.867 1266.13 224.867 1285.33 225.4C1296.8 225.667 1299.73 226.2 1306.4 229.4Z" fill="#050504"/>
<path d="M2016.8 421.8C1987.87 452.467 1982 459.267 1982 462.467V466.334H1998.53H2015.2L2015.6 515.267C2016 563 2016.13 564.6 2019.07 572.067C2025.47 587.667 2037.33 598.6 2054 603.8C2060.8 605.934 2067.73 606.734 2085.73 607.267L2108.67 608.067V588.734V569.4L2094.27 568.734C2076.8 568.067 2069.2 565 2063.6 556.6L2060 551.267L2059.6 508.734L2059.2 466.334H2083.33H2107.33V449V431.667H2082.67H2058V408.334V385H2054.8C2052.4 385 2043.47 393.534 2016.8 421.8Z" fill="#050504"/>
<path d="M1054.93 427.667C1033.87 431.4 1018.13 439.533 1004 453.667C986.533 471.133 979.467 487.933 978.4 513.667C977.6 534.2 979.867 545.4 988.133 562.333C996.933 579.933 1009.73 592.733 1027.33 601.533C1042.4 608.867 1054.13 611.667 1071.33 611.667C1088 611.667 1100.13 608.867 1114 602.2C1135.6 591.533 1155.33 567.133 1160 545.267L1160.93 541H1138.93H1116.93L1112.67 547.533C1104.67 560.067 1094.27 567.4 1080.27 570.333C1070.13 572.333 1060.67 571.133 1050.53 566.2C1040.4 561.4 1032.4 553 1026.93 541.267C1023.07 533.133 1022.67 531.133 1022.67 518.867C1022.67 506.067 1022.93 505.133 1027.73 495.4C1033.2 484.2 1040.53 476.6 1051.07 471.533C1056.4 468.867 1059.47 468.333 1070.67 468.333C1082.53 468.333 1084.93 468.733 1092 472.067C1100.4 475.933 1109.6 484.067 1114.13 491.267L1116.93 495.667H1138.67H1160.53L1158.4 488.6C1150.13 460.333 1126 437.267 1096.8 429.667C1086.8 427.133 1064 425.933 1054.93 427.667Z" fill="#050504"/>
<path d="M1267.33 427.133C1243.6 431.267 1229.87 437.533 1214.93 451.4C1186.67 477.667 1179.07 525 1196.93 562.333C1201.33 571.533 1204.53 575.8 1213.87 585C1232.67 603.8 1252 611.667 1278.53 611.667C1300.13 611.667 1317.87 605.933 1332.27 594.6C1336.13 591.533 1339.47 589.533 1339.73 590.067C1340.13 590.6 1341.07 594.467 1342 598.6L1343.73 606.333H1360.93H1378V519V431.533L1361.87 431.933L1345.6 432.333L1342.93 441.267L1340.4 450.067L1332.13 444.067C1322.93 437.133 1313.07 432.2 1302.93 429.533C1295.87 427.533 1273.33 426.067 1267.33 427.133ZM1306.27 472.067C1316.8 477.267 1325.33 485.933 1330.4 496.733C1334.27 504.867 1334.67 506.733 1334.67 519C1334.67 531.267 1334.27 533.133 1330.4 541.267C1325.33 552.067 1316.8 560.733 1306.4 565.8C1297.47 570.2 1280.67 571.667 1269.2 569.133C1259.47 566.867 1247.47 558.6 1241.47 549.933C1234.27 539.4 1232.27 532.733 1232.27 519C1232.27 504.067 1235.6 494.733 1244.27 484.867C1256.4 471.533 1266.13 467.533 1285.33 468.067C1296.8 468.333 1299.73 468.867 1306.27 472.067Z" fill="#050504"/>
<path d="M1647.6 427.667C1633.07 430.333 1618.8 436.867 1609.2 445.267C1606.67 447.533 1604.4 449.133 1604.13 448.867C1603.87 448.6 1601.73 444.6 1599.47 439.933L1595.33 431.667H1580.67H1566V551.667V671.667H1588H1610V633.667C1610 612.733 1610.4 595.667 1610.8 595.667C1611.2 595.667 1613.2 596.733 1615.07 598.2C1640.53 616.067 1680.27 616.867 1710.8 600.067C1714.4 598.2 1722.4 591.4 1728.67 585.133C1741.2 572.6 1748.13 560.733 1752.27 545C1755.47 533 1755.47 505 1752.13 493C1745.6 469 1728.27 447.533 1707.33 437.267C1701.07 434.2 1692.4 430.733 1688 429.667C1678 427 1656.93 426.067 1647.6 427.667ZM1680.93 471.933C1701.87 481.533 1712.67 502.467 1709.73 527.667C1705.07 567.533 1654.13 585.667 1624 558.2C1613.6 548.6 1608.53 537.933 1607.73 523.267C1606.13 497.8 1619.07 477.667 1641.87 470.067C1652.93 466.467 1670.8 467.267 1680.93 471.933Z" fill="#050504"/>
<path d="M1859.87 427.533C1835.07 431.533 1813.07 445.4 1799.47 465.667C1787.87 483.133 1782.4 503.667 1783.73 525.133C1785.33 550.067 1793.6 568.733 1810.67 585.667C1828.67 603.667 1848.27 611.667 1874.67 611.667C1910.93 611.667 1940.8 593.8 1956.53 562.733C1958.8 558.2 1960.67 554.067 1960.67 553.667C1960.67 553.267 1950.4 553 1937.87 553H1915.2L1908.93 559.4C1899.6 568.867 1892 572.067 1876.67 572.733C1865.87 573.133 1862.8 572.733 1856 570.2C1841.87 564.867 1831.47 551.667 1828.27 534.733L1827.47 530.333L1896.4 530.067L1965.33 529.667L1965.2 516.333C1964.93 500.067 1962.4 489.267 1955.2 474.333C1944.8 453.133 1923.6 435.933 1900 429.8C1890.4 427.267 1869.33 426.067 1859.87 427.533ZM1895.6 467.267C1904 471.133 1914 481.267 1918.4 490.6C1924.4 503.4 1928.27 502.333 1875.33 502.333H1828.67L1829.47 498.6C1833.2 483.4 1845.73 469.667 1860.67 464.867C1867.2 462.733 1888.8 464.2 1895.6 467.267Z" fill="#050504"/>
<path d="M1504 432.333C1492.27 434.867 1484 439.133 1475.33 447.267C1471.07 451.133 1467.33 454.333 1467.07 454.333C1466.67 454.333 1464.4 449.267 1462 443L1457.6 431.667H1443.87H1430V519.667V607.667H1452H1474V557.667C1474 506.6 1474.67 498.2 1479.33 489C1485.6 476.867 1494.53 472.867 1517.73 471.933L1534 471.4V450.867V430.333L1523.07 430.467C1516.93 430.467 1508.4 431.4 1504 432.333Z" fill="#050504"/>
</g>
<defs>
<clipPath id="clip0_1878_16166">
<rect width="2109" height="749" fill="white"/>
</clipPath>
</defs>
</svg>
