<?xml version="1.0" standalone="no"?>
<!DOCTYPE svg PUBLIC "-//W3C//DTD SVG 20010904//EN"
 "http://www.w3.org/TR/2001/REC-SVG-20010904/DTD/svg10.dtd">
<svg version="1.0" xmlns="http://www.w3.org/2000/svg"
 width="1175.000000pt" height="1117.000000pt" viewBox="0 0 1175.000000 1117.000000"
 preserveAspectRatio="xMidYMid meet">

<g transform="translate(0.000000,1117.000000) scale(0.100000,-0.100000)"
fill="#000000" stroke="none">
<path d="M0 5585 l0 -5585 5875 0 5875 0 0 5585 0 5585 -5875 0 -5875 0 0
-5585z m5846 2620 c4 -8 1 -21 -5 -29 -8 -10 -4 -37 19 -111 16 -54 30 -99 30
-101 0 -2 3 -4 8 -4 16 0 61 87 59 115 -2 24 2 31 21 33 16 3 22 -2 22 -17 0
-11 -4 -23 -10 -26 -11 -7 -14 -135 -2 -135 4 1 33 39 65 85 39 57 57 94 57
114 0 24 4 31 20 31 30 0 37 -29 12 -49 -15 -11 -36 -61 -67 -159 -25 -79 -45
-147 -45 -151 0 -5 38 -18 85 -29 265 -65 511 -240 666 -472 66 -100 126 -237
156 -356 24 -97 27 -127 27 -274 0 -137 -4 -180 -22 -253 -119 -476 -512 -818
-999 -867 -252 -26 -508 38 -731 183 -85 55 -217 179 -282 265 -71 94 -155
267 -186 387 -35 134 -44 357 -20 488 68 362 298 664 627 821 52 25 132 56
179 70 80 23 85 26 83 50 -4 55 -84 281 -105 297 -14 11 -19 22 -15 33 11 28
41 14 47 -20 5 -33 108 -193 124 -194 8 0 3 76 -10 148 -6 31 -5 33 17 30 20
-2 24 -8 22 -33 -2 -27 43 -115 59 -115 4 0 17 33 28 73 12 39 25 84 29 98 5
15 5 33 -1 43 -5 9 -7 24 -4 32 7 19 35 18 42 -1z m-2358 -1056 c104 -25 339
-159 494 -281 l27 -21 108 53 c219 108 328 143 488 156 l87 7 -7 -34 c-13 -63
-26 -74 -109 -88 -42 -7 -113 -25 -159 -41 -79 -27 -297 -125 -297 -133 0 -9
139 -107 151 -107 6 0 55 14 107 30 54 18 129 34 174 37 l79 6 -3 -49 -3 -49
-55 -6 c-61 -7 -170 -39 -170 -50 0 -13 30 -32 143 -89 84 -43 113 -63 115
-79 l3 -21 -53 20 c-29 12 -104 50 -165 85 -75 43 -118 62 -130 58 -24 -9
-346 -192 -356 -202 -19 -19 228 -166 347 -205 128 -43 288 -38 379 13 41 22
49 24 57 11 15 -22 -29 -56 -98 -76 -73 -22 -216 -21 -301 1 -80 21 -231 96
-341 170 l-85 57 -70 -37 c-374 -200 -478 -243 -633 -266 -213 -30 -383 35
-441 170 -18 43 -28 53 -69 71 -65 29 -125 91 -159 164 -25 54 -28 72 -28 156
1 135 25 193 116 282 84 82 152 108 283 108 183 0 352 -80 620 -295 47 -37 76
-53 88 -49 10 3 88 48 173 101 135 83 154 97 143 111 -21 25 -247 171 -328
212 -92 46 -145 61 -217 61 -64 0 -154 -38 -180 -77 -18 -28 -33 -31 -33 -7 0
24 90 107 130 120 47 15 121 15 178 2z m4871 -4 c53 -19 108 -61 127 -98 23
-44 10 -44 -42 2 -59 51 -101 64 -196 60 -64 -4 -88 -11 -159 -46 -81 -40
-351 -213 -363 -231 -5 -8 283 -191 326 -207 12 -5 50 19 125 78 267 210 413
273 608 265 84 -4 109 -9 157 -32 122 -59 197 -161 218 -294 27 -163 -65 -346
-192 -384 -32 -9 -42 -19 -59 -57 -64 -145 -236 -215 -449 -182 -149 23 -378
118 -595 246 -51 30 -97 55 -101 55 -4 0 -56 -32 -116 -71 -231 -151 -400
-200 -564 -166 -82 18 -154 51 -154 72 0 26 19 26 69 1 107 -55 266 -53 408 4
124 50 313 164 313 190 0 12 -83 62 -238 143 l-133 69 -112 -64 c-119 -68
-215 -113 -224 -104 -16 15 34 53 141 109 66 34 121 67 123 73 5 14 -137 54
-190 54 l-37 0 0 50 0 50 48 0 c50 0 179 -29 245 -55 20 -8 46 -15 56 -15 24
0 153 98 146 111 -21 33 -317 148 -437 169 -93 16 -97 18 -108 58 -16 59 -14
62 34 62 121 0 329 -61 506 -148 63 -31 118 -58 121 -60 3 -1 50 29 105 68
287 205 462 271 593 225z m-3311 -1415 c46 -12 120 -57 133 -81 22 -42 -9 -36
-79 16 -84 61 -255 55 -298 -10 -14 -22 -15 -32 -5 -66 26 -87 174 -148 380
-157 l123 -5 -8 24 c-11 34 -8 119 4 131 19 19 32 -3 32 -58 0 -78 11 -94 63
-94 23 0 84 9 136 20 99 21 227 27 216 10 -9 -14 -183 -68 -246 -76 -30 -4
-60 -10 -68 -14 -32 -17 126 -103 250 -135 82 -22 242 -22 332 -1 78 18 224
85 250 114 18 20 18 20 -40 32 -32 6 -91 20 -131 31 -212 56 -177 94 43 46 39
-9 103 -19 142 -23 72 -6 73 -6 83 20 5 15 10 54 10 87 0 45 3 59 14 59 8 0
18 -5 22 -11 9 -14 8 -111 -1 -140 l-7 -22 113 6 c201 11 342 62 383 138 17
32 18 40 6 68 -19 48 -61 66 -150 65 -83 -1 -146 -23 -195 -68 -28 -26 -45
-26 -45 -1 0 21 70 73 122 91 71 23 187 21 242 -5 100 -49 94 -171 -11 -244
-91 -63 -197 -93 -372 -107 l-122 -9 -64 -59 c-120 -113 -249 -156 -465 -156
-133 0 -152 2 -225 27 -103 36 -157 68 -226 134 l-56 53 -114 9 c-279 24 -427
92 -459 212 -34 126 102 196 288 149z m-498 -120 c39 -39 14 -100 -41 -100
-34 0 -59 24 -59 56 0 29 33 64 60 64 11 0 29 -9 40 -20z m2670 0 c39 -39 14
-100 -41 -100 -34 0 -59 24 -59 56 0 29 33 64 60 64 11 0 29 -9 40 -20z
m-2890 -30 c15 -28 -4 -60 -35 -60 -31 0 -50 32 -35 60 6 12 21 20 35 20 14 0
29 -8 35 -20z m3100 1 c14 -26 3 -50 -26 -57 -42 -11 -72 34 -42 64 18 18 56
14 68 -7z m-3305 -12 c7 -21 -7 -39 -32 -39 -14 0 -27 36 -18 50 11 18 43 11
50 -11z m3489 4 c4 -9 1 -23 -7 -30 -7 -8 -21 -11 -30 -7 -17 6 -23 35 -10 47
12 13 41 7 47 -10z m-2143 -724 c57 -5 109 -15 115 -20 8 -6 9 -22 4 -47 -5
-20 -13 -63 -20 -94 -7 -38 -16 -58 -26 -58 -8 0 -14 5 -14 11 0 7 -9 42 -20
80 -20 67 -21 67 -63 75 -62 10 -150 8 -194 -6 -130 -42 -213 -184 -213 -363
1 -273 204 -425 485 -362 114 25 115 1 2 -51 -58 -27 -70 -29 -187 -29 -120 0
-128 1 -192 32 -117 55 -194 148 -228 276 -17 64 -8 227 15 287 60 148 200
251 369 270 33 4 62 8 62 9 1 0 48 -4 105 -10z m773 -357 c162 -448 157 -437
209 -455 22 -7 43 -19 45 -25 3 -9 -37 -12 -153 -12 -116 0 -156 3 -153 12 2
6 19 17 38 23 51 17 51 15 -12 193 l-30 83 -146 -3 -146 -3 -44 -110 c-23 -60
-41 -119 -40 -129 2 -12 16 -24 37 -31 19 -6 37 -17 39 -23 3 -10 -29 -12
-130 -10 -140 3 -157 11 -86 38 22 8 46 26 54 40 12 21 128 296 296 698 28 68
32 72 61 72 l32 0 129 -358z m796 324 c80 -31 115 -85 115 -174 -1 -87 -28
-142 -93 -183 -26 -16 -57 -32 -70 -36 -29 -7 -30 -7 70 -167 104 -168 128
-198 177 -221 64 -29 53 -45 -29 -45 -116 0 -146 25 -254 216 -99 172 -109
184 -157 184 l-39 0 2 -172 3 -171 34 -12 c19 -6 37 -17 39 -23 3 -9 -34 -12
-142 -12 -117 0 -146 3 -146 14 0 7 14 16 32 20 60 12 58 -3 58 386 0 389 2
374 -58 386 -18 4 -32 13 -32 20 0 10 31 14 143 17 201 5 283 -2 347 -27z
m777 2 c113 -41 158 -151 117 -287 -19 -66 -80 -129 -149 -155 -30 -11 -89
-20 -147 -23 l-98 -6 0 -148 0 -148 47 -13 c25 -7 48 -19 51 -26 3 -9 -33 -12
-152 -12 -126 0 -156 3 -156 14 0 7 14 16 32 20 60 12 58 -3 58 386 0 389 2
374 -58 386 -18 4 -32 13 -32 20 0 11 33 14 153 16 203 4 272 -1 334 -24z
m-5289 10 c-3 -7 -22 -18 -44 -24 l-39 -11 -3 -371 -2 -372 145 0 145 0 40 80
c22 44 45 80 50 80 11 0 14 -168 4 -194 -5 -14 -41 -16 -301 -16 -223 0 -294
3 -291 12 2 6 17 16 34 21 56 18 54 2 54 387 0 389 2 374 -58 386 -18 4 -32
13 -32 20 0 11 30 14 151 14 115 0 150 -3 147 -12z m633 -3 c0 -5 -17 -14 -38
-20 l-38 -11 -3 -269 c-1 -165 2 -290 8 -322 22 -104 79 -153 188 -161 120 -8
200 32 238 121 16 37 19 77 22 333 l3 292 -42 14 c-83 28 -60 38 81 38 97 0
131 -3 128 -12 -2 -6 -17 -16 -34 -21 -55 -18 -54 -11 -54 -278 0 -146 -5
-270 -11 -301 -35 -165 -122 -238 -293 -246 -171 -9 -263 33 -318 146 l-33 66
-5 291 c-3 159 -9 295 -13 302 -4 7 -23 15 -42 19 -21 4 -35 12 -35 20 0 12
25 14 145 12 84 -2 145 -7 146 -13z m919 5 c0 -5 -16 -16 -35 -24 -21 -9 -35
-22 -35 -33 0 -23 152 -253 165 -249 18 5 155 231 152 251 -1 12 -14 23 -34
29 -18 5 -33 15 -33 22 0 11 27 14 129 14 130 0 170 -10 114 -30 -15 -5 -39
-15 -53 -22 -30 -16 -242 -327 -233 -342 32 -56 247 -367 265 -383 13 -11 36
-25 52 -30 17 -5 32 -15 34 -21 3 -9 -38 -12 -158 -12 -124 0 -161 3 -158 12
3 7 19 17 36 22 23 6 32 15 32 30 0 12 -43 86 -96 165 -79 118 -98 141 -108
130 -33 -36 -168 -266 -169 -288 -2 -21 4 -28 33 -37 19 -6 36 -16 38 -23 3
-8 -37 -11 -138 -11 -150 0 -174 9 -95 37 56 19 71 36 195 223 l112 169 -123
180 c-111 164 -126 182 -163 194 -22 7 -42 19 -44 25 -3 9 37 12 157 12 99 0
161 -4 161 -10z m4530 4 c0 -38 -35 -184 -44 -184 -7 0 -21 30 -32 68 l-19 67
-138 3 -137 3 0 -166 0 -165 105 0 105 0 11 45 c8 32 16 45 27 43 23 -4 25
-238 2 -238 -9 0 -22 17 -30 43 l-15 42 -102 3 -103 3 0 -176 0 -175 143 0
143 0 39 80 c39 80 61 97 59 47 0 -15 -1 -61 -2 -102 l-2 -75 -295 0 c-244 0
-295 2 -295 14 0 7 14 16 32 20 60 12 58 -3 58 386 0 389 2 374 -58 386 -18 4
-32 13 -32 20 0 12 51 14 290 14 160 0 290 -3 290 -6z m827 -16 c-3 -13 -11
-57 -18 -98 -6 -41 -18 -81 -25 -89 -16 -17 -14 -20 -39 87 l-17 72 -104 0
-104 0 0 -368 0 -368 47 -15 c25 -8 48 -20 51 -27 3 -9 -36 -12 -163 -12 -180
0 -204 9 -109 40 l49 17 0 364 0 364 -105 0 -105 0 -25 -72 c-14 -40 -31 -78
-37 -84 -14 -14 -19 13 -27 134 l-6 77 371 0 371 0 -5 -22z m-4435 -1145 c18
-16 24 -59 10 -79 -11 -18 -48 -34 -76 -34 -24 0 -26 -4 -26 -39 0 -22 5 -42
13 -44 6 -3 -10 -5 -38 -5 -27 0 -44 2 -37 5 8 3 12 34 12 103 0 69 -4 100
-12 103 -7 3 20 6 61 6 56 1 79 -3 93 -16z m270 0 c24 -21 23 -52 -3 -79 l-21
-23 22 -38 c13 -21 29 -43 37 -49 11 -9 11 -13 1 -17 -25 -9 -59 13 -85 58
-16 25 -31 45 -35 45 -14 0 -9 -88 5 -93 6 -3 -10 -5 -38 -5 -27 0 -44 2 -37
5 8 3 12 34 12 103 0 69 -4 100 -12 103 -7 3 20 6 61 6 56 1 79 -3 93 -16z
m298 -2 c0 -28 -17 -35 -23 -10 -4 16 -12 20 -34 17 -25 -3 -28 -7 -31 -45 -3
-36 0 -43 15 -43 11 0 24 5 31 12 9 9 12 5 12 -21 0 -30 -1 -31 -16 -16 -25
25 -39 12 -39 -36 0 -39 3 -44 24 -45 13 -1 32 7 42 17 19 19 19 18 19 -6 0
-25 -1 -25 -82 -24 -46 0 -77 3 -70 6 8 3 12 34 12 103 0 69 -4 100 -12 103
-7 3 24 6 70 6 75 1 82 -1 82 -18z m200 -53 c14 -36 28 -69 31 -72 3 -3 19 27
35 67 29 72 29 72 69 74 22 1 34 0 28 -3 -9 -4 -13 -35 -13 -104 0 -69 4 -100
13 -103 6 -3 -10 -6 -38 -6 -30 0 -45 3 -37 8 9 5 12 29 10 82 l-3 74 -34 -83
c-18 -46 -38 -81 -44 -79 -5 1 -21 33 -36 69 -14 37 -30 70 -34 74 -4 4 -7
-25 -7 -63 0 -48 4 -73 13 -76 6 -3 -4 -5 -23 -5 -19 0 -29 2 -22 5 8 3 12 32
12 97 0 60 -4 96 -12 105 -11 10 -5 12 27 9 38 -3 40 -4 65 -70z m352 -29 c-3
-76 0 -104 10 -110 8 -5 -6 -9 -36 -9 -39 0 -47 3 -38 12 7 7 12 44 12 98 0
54 -5 91 -12 98 -9 9 -3 12 28 12 l39 0 -3 -101z m188 86 c-19 -23 -6 -166 17
-182 24 -19 50 -16 73 7 17 17 20 33 20 99 0 54 -4 81 -12 84 -7 3 3 5 22 5
19 0 29 -2 23 -5 -9 -3 -13 -29 -13 -78 0 -41 -5 -85 -11 -99 -23 -49 -123
-57 -154 -13 -10 14 -15 47 -15 97 0 46 -5 81 -12 88 -9 9 -2 12 31 12 38 0
42 -2 31 -15z m344 -55 c15 -38 31 -70 35 -70 4 0 20 32 35 70 26 66 30 70 59
70 l32 0 -3 -101 c-3 -76 0 -104 10 -110 8 -5 -6 -9 -36 -9 -39 0 -47 3 -38
12 14 14 17 152 3 144 -4 -3 -21 -39 -37 -81 -16 -41 -33 -75 -39 -75 -6 0
-24 35 -40 78 -26 66 -30 73 -33 48 -2 -16 -2 -51 0 -78 3 -47 3 -48 -27 -48
-20 0 -26 3 -17 9 10 6 13 34 10 110 l-3 101 31 0 c29 0 33 -4 58 -70z"/>
<path d="M5660 7696 c-552 -99 -931 -623 -847 -1172 119 -769 993 -1138 1632
-689 73 52 197 180 252 261 128 188 179 377 171 625 -6 160 -29 257 -92 394
-95 206 -291 402 -498 500 -136 64 -236 87 -398 91 -93 2 -172 -2 -220 -10z
m721 -607 c57 -5 109 -15 115 -20 8 -6 9 -22 4 -47 -5 -20 -13 -63 -20 -94 -6
-33 -17 -58 -24 -58 -7 0 -20 30 -30 68 -10 38 -21 73 -24 80 -19 29 -184 33
-257 6 -145 -53 -232 -278 -181 -469 56 -212 233 -305 477 -249 108 24 106 -2
-4 -51 -75 -34 -225 -46 -304 -25 -198 54 -313 207 -313 415 1 147 33 229 125
321 71 70 159 111 265 124 36 4 66 8 66 9 1 0 48 -4 105 -10z m-933 -21 c-3
-7 -22 -18 -44 -24 l-39 -11 -3 -371 -2 -372 145 0 145 0 40 80 c22 44 45 80
50 80 11 0 14 -168 4 -194 -5 -14 -41 -16 -300 -16 -243 0 -294 2 -294 14 0 7
14 16 32 20 60 12 58 -3 58 386 0 389 2 374 -58 386 -18 4 -32 13 -32 20 0 11
30 14 151 14 115 0 150 -3 147 -12z"/>
<path d="M2847 6918 c-79 -10 -137 -38 -197 -94 -74 -69 -105 -139 -105 -239
0 -69 4 -86 27 -126 28 -48 85 -93 129 -104 26 -6 27 -5 37 68 23 151 92 261
192 306 130 59 285 -20 285 -145 0 -56 -17 -74 -46 -48 -17 15 -20 26 -15 57
6 33 3 42 -22 67 -39 39 -106 49 -169 25 -100 -38 -183 -162 -191 -283 -4 -62
-4 -63 19 -58 13 3 60 7 104 10 111 8 246 46 409 117 126 54 266 124 266 134
0 13 -246 181 -326 222 -158 81 -273 108 -397 91z"/>
<path d="M3955 6679 c-55 -32 -130 -76 -167 -97 -38 -20 -68 -43 -68 -49 0
-12 108 -103 122 -103 4 0 36 17 70 38 35 21 116 67 181 101 64 35 117 64 117
66 0 6 -140 105 -147 104 -5 0 -53 -27 -108 -60z"/>
<path d="M3514 6435 c-228 -116 -412 -171 -636 -191 -57 -5 -78 -10 -78 -20 0
-26 80 -92 133 -111 75 -26 210 -24 307 6 111 34 560 266 560 289 0 7 -73 72
-109 98 -13 9 -50 -6 -177 -71z"/>
<path d="M8692 6919 c-118 -15 -229 -62 -387 -166 -121 -80 -197 -142 -190
-154 19 -29 325 -164 474 -208 111 -33 267 -57 302 -46 20 7 21 12 15 63 -21
181 -181 324 -316 283 -50 -15 -70 -44 -67 -100 1 -32 -3 -47 -18 -57 -27 -20
-45 0 -45 48 0 128 155 208 285 147 106 -50 194 -200 195 -331 0 -20 3 -39 8
-41 17 -11 63 7 100 39 70 59 103 161 81 250 -47 194 -216 299 -437 273z"/>
<path d="M7532 6689 c-40 -28 -72 -52 -72 -54 0 -2 57 -33 128 -70 70 -37 153
-83 184 -102 l57 -35 33 20 c18 11 48 36 66 55 l33 34 -108 64 c-141 84 -237
139 -244 139 -3 0 -37 -23 -77 -51z"/>
<path d="M7972 6497 c-15 -11 -44 -36 -64 -55 l-38 -36 38 -21 c20 -12 96 -56
167 -97 249 -145 378 -192 535 -192 78 0 105 4 148 24 47 20 122 89 122 112 0
4 -19 8 -43 8 -201 0 -434 70 -715 215 l-122 63 -28 -21z"/>
<path d="M5983 4528 c-39 -101 -56 -155 -49 -160 12 -9 220 -11 228 -3 7 7
-103 315 -112 315 -4 0 -34 -69 -67 -152z"/>
<path d="M6760 4615 l0 -175 64 0 c142 0 199 52 199 181 0 121 -53 169 -188
169 l-75 0 0 -175z"/>
<path d="M7568 4793 l-28 -4 0 -189 c0 -212 -5 -200 84 -200 101 0 176 61 190
155 15 99 -18 185 -84 217 -38 18 -118 28 -162 21z"/>
<path d="M4910 3630 c0 -46 2 -50 24 -50 39 0 52 71 17 90 -34 18 -41 12 -41
-40z"/>
<path d="M5180 3635 c0 -37 3 -45 18 -45 41 0 59 60 23 80 -34 18 -41 11 -41
-35z"/>
</g>
</svg>
